<?xml version="1.0" encoding="utf-8"?>
<!-- Generator: Adobe Illustrator 27.5.0, SVG Export Plug-In . SVG Version: 6.00 Build 0)  -->
<svg version="1.1" id="_x2018_ëîé_x5F_1" xmlns="http://www.w3.org/2000/svg" xmlns:xlink="http://www.w3.org/1999/xlink"
	 x="0px" y="0px" viewBox="0 0 3000 3000" style="enable-background:new 0 0 3000 3000;" xml:space="preserve">
<rect style="fill:#FFFFFF;stroke:#FFFFFF;stroke-miterlimit:10;" width="3000" height="3000"/>
<g>
	<circle style="fill:#EDEDED;" cx="1500" cy="1500" r="1143.358"/>
	<g>
		<circle style="fill:#706F6F;" cx="1500" cy="1050.081" r="336.688"/>
		<path style="fill:#706F6F;" d="M1998.785,2286.607h-997.582c-107.8,0-186.698-97.966-159.938-198.641
			c21.077-79.264,42.153-158.527,63.23-237.791c16.36-61.527,32.721-123.055,49.082-184.583c6.733-25.322,13.466-50.643,20.2-75.965
			c6.493-24.42,9.711-54.911,22.009-76.638c15.598-27.555,52.044-70.462,87.528-67.597c23.718,1.915,35.53,30.12,49.675,45.99
			c41.64,46.718,95.867,80.933,151.716,108.221c65.852,32.164,141.116,59.088,215.296,59.088c73.221,0,147.603-27.12,212.918-58.067
			c43.213-20.475,85.901-43.353,123.49-73.151c18.228-14.451,36.871-30.846,50.397-49.944
			c11.764-16.609,19.053-36.275,43.132-37.267c11.741-0.484,23.226,4.218,32.834,10.984c21.764,15.326,46.179,38.04,60.183,60.75
			c17.396,28.21,19.79,64.345,27.053,96.346c6.457,28.451,12.914,56.901,19.37,85.351c14.906,65.68,29.813,131.361,44.719,197.041
			c15.337,67.577,30.676,135.155,46.01,202.733C2182.629,2192.724,2104.222,2286.607,1998.785,2286.607z"/>
	</g>
</g>
</svg>
